# xmcd
#
# Track frame offsets: 
#        150
#        58070
#        113495
#        177551
#
# Disc length: 2693 seconds
#
# Revision: 0
# Processed by: cddbd v1.5.2PL0 Copyright (c) Steve Scherf et al.
# Submitted via: ExactAudioCopyFreeDBPlugin 1.0
#
DISCID=300a8304
DTITLE=Minh Tuyet Ha Vy Tu Quyen - Lien khuc VietNamese Top Hits
DYEAR=2000
DGENRE=Pop
TTITLE0=Lien khuc Tinh - Chan Tinh
TTITLE1=Lien khuc Yeu Nhau Ghet nhau
TTITLE2=Lien khuc Mua Phi Truong
TTITLE3=Lien khuc Cau Vong Khuyet
EXTD=
EXTT0=
EXTT1=
EXTT2=
EXTT3=
PLAYORDER=
